<?xml version="1.0" encoding="UTF-8"?>
<svg version="1.1" viewBox="0 0 1000 212" xmlns="http://www.w3.org/2000/svg">
<g transform="translate(-.60606 -.073818)">
<svg width="1e3" height="212" data-background-color="#000000" viewBox="0 0 396 84" xmlns="http://www.w3.org/2000/svg" xmlns:xlink="http://www.w3.org/1999/xlink">
<g transform="translate(.24 .029249)">
<svg width="395.52" height="83.942" viewBox="0 0 395.52 83.94150298991596">
<svg width="395.52" height="83.942" viewBox="0 0 515.157646358771 109.33228942178106">
<g transform="translate(0 15.11)">
<svg width="395.52" height="79.112" viewBox="0 0 395.52 79.11164212864041">
<svg width="395.52" height="79.112" viewBox="0 0 395.52 79.11164212864041">
<svg width="395.52" height="43.653" viewBox="0 0 395.52 43.65270903010032">
<g>
<svg width="395.52" height="43.653" data-palette-color="#ffffff" viewBox="1.350000023841858 -35.650001525878906 328.8800048828125 36.30000305175781">
<path class="undefined-text-0" d="m25.95 0h-5.35q-4.5-0.05-8.05-1.35t-6.05-3.65-3.82-5.53q-1.33-3.17-1.33-6.97t1.33-6.98q1.32-3.17 3.82-5.52t6.05-3.68q3.55-1.32 8.05-1.32h5.35v7.75h-5.05q-2.35 0-4.17 0.75-1.83 0.75-3.08 2.07-1.25 1.33-1.9 3.1-0.65 1.78-0.65 3.83t0.65 3.82q0.65 1.78 1.9 3.1 1.25 1.33 3.08 2.08 1.82 0.75 4.17 0.75h5.05v7.75zm28.95 0h-15.2q-2.95 0-5.4-1.33-2.45-1.32-3.88-3.65-1.42-2.32-1.42-5.27 0-2.25 1-4.25t2.8-3.4q-1.6-1.35-2.58-3.23-0.97-1.87-0.97-3.87 0-2.9 1.4-5.15t3.8-3.55 5.25-1.3h15.2v7.75h-13.3q-0.9 0-1.63 0.35-0.72 0.35-1.15 1-0.42 0.65-0.42 1.55 0 0.85 0.42 1.47 0.43 0.63 1.15 1 0.73 0.38 1.63 0.38h11.55v7.7h-11.45q-0.95 0-1.7 0.37-0.75 0.38-1.18 1.08-0.42 0.7-0.42 1.6t0.42 1.57q0.43 0.68 1.18 1.05 0.75 0.38 1.7 0.38h13.2v7.75zm21.25 0h-16.4v-7.75h14.9q0.94 0 1.62-0.4t1.07-1.1q0.41-0.7 0.41-1.5 0-0.85-0.41-1.55-0.39-0.7-1.07-1.1t-1.62-0.4h-4.95q-3.15 0-5.7-1.25t-4.08-3.58q-1.52-2.32-1.52-5.62 0-3.25 1.45-5.65t3.9-3.75 5.45-1.35h15.7v7.75h-14.5q-0.81 0-1.43 0.37-0.63 0.38-0.97 0.98-0.35 0.6-0.35 1.35t0.35 1.37q0.34 0.63 0.97 1 0.62 0.38 1.43 0.38h5.25q3.5 0 6.05 1.3t3.95 3.62q1.4 2.33 1.4 5.48 0 3.6-1.48 6.17-1.48 2.58-3.95 3.9-2.47 1.33-5.47 1.33zm22.39 0h-9.95l11.25-30.75q0.95-2.45 3-3.68 2.05-1.22 4.65-1.22t4.68 1.2q2.07 1.2 2.97 3.65l11.25 30.8h-10.25l-2.05-6.4h-13.4l-2.15 6.4zm8.45-26.65-4.05 12.65h8.95l-3.85-12.65q-0.05-0.2-0.2-0.3t-0.35-0.1q-0.15 0-0.27 0.1-0.13 0.1-0.23 0.3zm30.85 26.65h-9.55v-35h16.25q3.7 0 6.7 1.57 3 1.58 4.8 4.35 1.8 2.78 1.8 6.48 0 3.2-1.52 5.87-1.53 2.68-4.08 4.33l2.35 3.9q0.3 0.45 0.68 0.67 0.37 0.23 1.02 0.23h2.8v7.6h-5.2q-2.5 0-4.45-1.13-1.95-1.12-3-2.92l-3.55-6.1q-0.3 0-0.6 0t-0.55 0h-3.9v10.15zm0-27.25v9.5h5.7q1.25 0 2.3-0.57 1.05-0.58 1.7-1.68t0.65-2.55-0.65-2.5-1.7-1.63q-1.05-0.57-2.3-0.57h-5.7zm59.05 27.25h-10.15q-3.4 0-5.95-1.48-2.55-1.47-3.95-3.92t-1.4-5.4v-24.2h9.55v24.55q0 1.1 0.77 1.9 0.78 0.8 1.88 0.8h9.25v7.75zm20.99 0.65q-4.15 0-7.6-1.38-3.45-1.37-5.92-3.85-2.48-2.47-3.85-5.77-1.38-3.3-1.38-7.15t1.38-7.18q1.37-3.32 3.85-5.77 2.47-2.45 5.92-3.82 3.45-1.38 7.6-1.38 4.2 0 7.63 1.38 3.42 1.37 5.92 3.82t3.85 5.77q1.35 3.33 1.35 7.18t-1.35 7.15-3.85 5.77q-2.5 2.48-5.92 3.85-3.43 1.38-7.63 1.38zm0-7.9q2.05 0 3.73-0.78 1.67-0.77 2.9-2.2 1.22-1.42 1.85-3.27 0.62-1.85 0.62-4t-0.62-4.03q-0.63-1.87-1.85-3.27-1.23-1.4-2.9-2.18-1.68-0.77-3.73-0.77-2 0-3.7 0.77-1.7 0.78-2.9 2.18t-1.85 3.27q-0.65 1.88-0.65 4.03t0.65 4 1.85 3.27q1.2 1.43 2.9 2.2 1.7 0.78 3.7 0.78zm32.35 7.25h-9.55v-35h15.35q3.7 0 6.7 1.6t4.78 4.45q1.77 2.85 1.77 6.65 0 3.7-1.77 6.6-1.78 2.9-4.78 4.52-3 1.63-6.7 1.63h-5.8v9.55zm0-27.25v10h4.75q1.3 0 2.35-0.6t1.68-1.73q0.62-1.12 0.62-2.67 0-1.6-0.62-2.73-0.63-1.12-1.68-1.7-1.05-0.57-2.35-0.57h-4.75zm47.85 27.25h-15.2q-2.95 0-5.4-1.33-2.45-1.32-3.88-3.65-1.42-2.32-1.42-5.27 0-2.25 1-4.25t2.8-3.4q-1.6-1.35-2.58-3.23-0.97-1.87-0.97-3.87 0-2.9 1.4-5.15t3.8-3.55 5.25-1.3h15.2v7.75h-13.3q-0.9 0-1.63 0.35-0.72 0.35-1.15 1-0.42 0.65-0.42 1.55 0 0.85 0.42 1.47 0.43 0.63 1.15 1 0.73 0.38 1.63 0.38h11.55v7.7h-11.45q-0.95 0-1.7 0.37-0.75 0.38-1.18 1.08-0.42 0.7-0.42 1.6t0.42 1.57q0.43 0.68 1.18 1.05 0.75 0.38 1.7 0.38h13.2v7.75zm21.24 0h-16.39v-7.75h14.89q0.96 0 1.63-0.4 0.68-0.4 1.08-1.1t0.4-1.5q0-0.85-0.4-1.55t-1.08-1.1q-0.67-0.4-1.63-0.4h-4.94q-3.15 0-5.7-1.25t-4.08-3.58q-1.53-2.32-1.53-5.62 0-3.25 1.46-5.65 1.45-2.4 3.9-3.75t5.45-1.35h15.69v7.75h-14.5q-0.79 0-1.42 0.37-0.62 0.38-0.97 0.98-0.36 0.6-0.36 1.35t0.36 1.37q0.35 0.63 0.97 1 0.63 0.38 1.42 0.38h5.25q3.5 0 6.06 1.3 2.55 1.3 3.94 3.62 1.41 2.33 1.41 5.48 0 3.6-1.48 6.17-1.47 2.58-3.95 3.9-2.48 1.33-5.48 1.33z" fill="#fff" data-fill-palette-color="primary"/>
</svg>
</g>
</svg>
<g transform="translate(163.31 53.958)">
<svg width="232.21" height="25.154" viewBox="0 0 232.209792 25.15357616155013">
<g>
<svg width="232.21" height="25.154" data-palette-color="#ffffff" viewBox="3.25 -35 428.29998779296875 46.400001525878906">
<path class="undefined-text-1" d="m7.95-26v6.7h9.3v4.4h-9.3v14.9h-4.7v-26.65q0-3.7 2.35-5.95 1.6-1.5 3.6-1.95t4.9-0.45h5.3v4.4h-5.95q-5.5 0-5.5 4.6zm35.35 2v24h-8.65q-5.55 0-7.95-1.65-2.15-1.45-2.73-3.48-0.57-2.02-0.57-5.32v-13.55h4.4v13.5q0 0.9 0.05 1.53 0.05 0.62 0.35 1.59 0.3 0.98 0.85 1.6 0.55 0.63 1.6 1.11 1.05 0.47 2.55 0.47h5.7v-19.8h4.4zm6.25 14.5v-25.5h4.5v25.5q0 1.8 0.42 2.92 0.43 1.13 1.33 1.6 0.9 0.48 1.75 0.63t2.25 0.15v4.2q-5.6 0-7.93-2.15-2.32-2.15-2.32-7.35zm13.49 0v-25.5h4.5v25.5q0 1.8 0.43 2.92 0.42 1.13 1.32 1.6 0.9 0.48 1.75 0.63t2.25 0.15v4.2q-5.6 0-7.92-2.15-2.33-2.15-2.33-7.35zm34.15-25.5h9.15v4.4h-8.85q-5.05 0-5.05 4.1 0 2.2 2.22 3.72 2.23 1.53 6.03 2.93 1.7 0.65 2.9 1.32 1.2 0.68 2.4 1.78t1.8 2.82q0.6 1.73 0.6 3.98 0 2.5-1.05 4.47-1.05 1.98-2.7 3.1-1.65 1.13-3.38 1.7-1.72 0.58-3.37 0.63-0.7 0.05-2 0.05h-7.8v-4.4h7.65q3.4 0 5.55-1.43 2.15-1.42 2.15-4.17 0-1.35-0.6-2.38-0.6-1.02-1.73-1.77-1.12-0.75-2.3-1.3-1.17-0.55-2.82-1.15-0.45-0.15-0.7-0.25-7.85-3-7.85-9.8 0-4.2 2.7-6.28 2.7-2.07 7.05-2.07zm18.15 15.2h-4.45l8.95-8.95v4.75h6.75v4.2h-6.75v10.3q0 1.75 0.57 2.9 0.58 1.15 1.68 1.62 1.1 0.48 2.07 0.63 0.98 0.15 2.43 0.15v4.2q-5.75 0-8.5-2.2t-2.75-7.3v-10.3zm29.34 5.7v4.5q-1.9-1.45-4.65-1.45-2.35 0-3.65 0.92-1.3 0.93-1.3 2.63 0 3.3 4.9 3.3h6.6v-9.55q0-6.05-5.9-6.05h-8v-4.2h8.25q4.85 0 7.45 2.4t2.6 6.9v14.7h-11.15q-4.25 0-6.75-1.9t-2.5-5.55 2.65-5.55 6.65-1.9q2.25 0 4.8 0.8zm28.2 8.85 3 2.95q-3.45 2.8-7.9 2.8-5.55 0-8.9-3.58-3.35-3.57-3.35-8.92 0-5.25 3.53-8.88 3.52-3.62 8.72-3.62 4.45 0 7.9 2.8l-2.95 3q-2.1-1.6-4.95-1.6-3.45 0-5.47 2.27-2.03 2.28-2.03 6.03t2.03 6.02q2.02 2.28 5.47 2.28 2.9 0 4.9-1.55zm15.85-9.2 5.2-9.55h4.85l-6.05 10.45q6.15 1.65 6.15 9.95v3.6h-4.4v-3.65q0-3.35-1.98-5.18-1.97-1.82-5.62-1.82-1.15 0-2.35 0.15v10.5h-4.4v-35h4.4v20.55q2.1-0.3 4.2 0zm51.59-3.05q-0.05 8.35-4.62 12.92-4.58 4.58-12.63 4.58h-6.8v-35h6.8q8.05 0 12.63 4.57 4.57 4.58 4.62 12.93zm-19.35 13.1h2.7q5.55 0 8.53-3.68 2.97-3.67 3.07-9.42-0.1-5.75-3.07-9.43-2.98-3.67-8.53-3.67h-2.7v26.2zm37.1-20.1q8.5 0.35 8.5 7.05 0 8.35-10.95 8.35h-2.05v-3.85h2.4q3.35 0 4.65-1.03 1.3-1.02 1.3-3.42 0-1.55-1.15-2.33-1.15-0.77-2.95-0.77-3.55 0-5.57 2.5-2.03 2.5-2.03 6 0 3.7 2.18 6 2.17 2.3 5.67 2.3 3.15 0 5.15-1.55l3 2.95q-3.45 2.8-8.15 2.8-5.7 0-9.1-3.35t-3.4-8.65q0-5.9 3.35-9.55t9.15-3.45zm22.1 25.05q-4.3-4.05-6.33-8.95-2.02-4.9-4.02-15.6h4.6q1.95 12.05 5.75 18.25 3.8-6.2 5.75-18.25h4.6q-2 10.7-4.03 15.6-2.02 4.9-6.32 8.95zm26.35-25.05q8.5 0.35 8.5 7.05 0 8.35-10.95 8.35h-2.05v-3.85h2.4q3.35 0 4.65-1.03 1.3-1.02 1.3-3.42 0-1.55-1.15-2.33-1.15-0.77-2.95-0.77-3.55 0-5.58 2.5-2.02 2.5-2.02 6 0 3.7 2.17 6 2.18 2.3 5.68 2.3 3.15 0 5.15-1.55l3 2.95q-3.45 2.8-8.15 2.8-5.7 0-9.1-3.35t-3.4-8.65q0-5.9 3.35-9.55t9.15-3.45zm13.49 15v-25.5h4.5v25.5q0 1.8 0.43 2.92 0.42 1.13 1.32 1.6 0.9 0.48 1.75 0.63t2.25 0.15v4.2q-5.6 0-7.92-2.15-2.33-2.15-2.33-7.35zm16.25-11.35q3.5-3.65 8.75-3.65 2.55 0 4.78 0.97 2.22 0.98 3.9 2.68 1.67 1.7 2.62 3.97 0.95 2.28 0.95 4.88t-0.92 4.87q-0.93 2.28-2.58 3.98t-3.9 2.67q-2.25 0.98-4.85 0.98-2.65 0-4.87-0.98-2.23-0.97-3.88-2.67t-2.57-3.98q-0.93-2.27-0.93-4.87 0-5.3 3.5-8.85zm8.75 0.55q-3.5 0-5.62 2.3-2.13 2.3-2.13 6t2.13 6q2.12 2.3 5.62 2.3 3.55 0 5.65-2.33 2.1-2.32 2.1-5.97t-2.1-5.98q-2.1-2.32-5.65-2.32zm22 31.7h-4.5v-23.4q0-2.6 0.95-4.9t2.6-3.98q1.65-1.67 3.9-2.65 2.25-0.97 4.8-0.97t4.77 0.97q2.23 0.98 3.9 2.68 1.68 1.7 2.63 3.97 0.95 2.28 0.95 4.88t-0.93 4.87q-0.92 2.28-2.57 3.98t-3.9 2.67q-2.25 0.98-4.85 0.98-3.2 0-5.95-1.5v-4.5q2.45 1.8 5.8 1.8 1.8 0 3.27-0.63 1.48-0.62 2.5-1.72 1.03-1.1 1.58-2.63 0.55-1.52 0.55-3.32t-0.55-3.33q-0.55-1.52-1.55-2.62t-2.43-1.73q-1.42-0.62-3.22-0.62-1.75 0-3.18 0.6-1.42 0.6-2.45 1.7-1.02 1.1-1.57 2.62-0.55 1.53-0.55 3.38v23.4zm37-35.9q8.5 0.35 8.5 7.05 0 8.35-10.95 8.35h-2.05v-3.85h2.4q3.35 0 4.65-1.03 1.3-1.02 1.3-3.42 0-1.55-1.15-2.33-1.15-0.77-2.95-0.77-3.55 0-5.58 2.5-2.02 2.5-2.02 6 0 3.7 2.17 6 2.18 2.3 5.68 2.3 3.15 0 5.15-1.55l3 2.95q-3.45 2.8-8.15 2.8-5.7 0-9.1-3.35t-3.4-8.65q0-5.9 3.35-9.55t9.15-3.45zm17.14 24.5h-4.4v-13.65q0-5.75 2.15-7.95 1.05-1.1 2.55-1.65t2.63-0.65q1.12-0.1 3.07-0.1h4.4v4.2h-5.3q-1 0-1.55 0.05t-1.3 0.35-1.3 0.95q-0.95 1.2-0.95 4.8v13.65z" fill="#fff" data-fill-palette-color="secondary"/>
</svg>
</g>
</svg>
</g>
</svg>
</svg>
</g>
<g transform="translate(405.83)">
<svg width="109.33" height="109.33" viewBox="0 0 109.33228942178106 109.33228942178106">
<g fill="#fff" stroke="transparent" data-palette-color="#ffffff">
<rect width="29.884" height="109.33" data-fill-palette-color="accent"/>
<rect x="36.444" width="29.884" height="109.33" fill-opacity=".75" data-fill-palette-color="accent"/>
<rect x="72.888" width="29.884" height="109.33" fill-opacity=".5" data-fill-palette-color="accent"/>
</g>
</svg>
</g>
</svg>
</svg>
<rect width="395.52" height="83.942" fill="none" visibility="hidden"/>
</g>
</svg>
</g>
</svg>
