<?xml version="1.0" encoding="UTF-8"?>
<svg version="1.1" viewBox="0 0 1000 209" xmlns="http://www.w3.org/2000/svg">
<g transform="translate(-.60606 .098271)">
<svg width="1e3" height="209" data-background-color="#ffffff" viewBox="0 0 396 83" xmlns="http://www.w3.org/2000/svg" xmlns:xlink="http://www.w3.org/1999/xlink">
<g transform="translate(.24 -.039026)">
<svg width="395.52" height="83.078" viewBox="0 0 395.52 83.07805290773892">
<svg width="395.52" height="83.078" viewBox="0 0 513.5888557676893 107.87814050438205">
<g transform="translate(0 14.909)">
<svg width="395.52" height="78.059" viewBox="0 0 395.52000000000004 78.05943596554417">
<svg width="395.52" height="78.059" viewBox="0 0 395.52000000000004 78.05943596554417">
<svg width="395.52" height="43.167" viewBox="0 0 395.52000000000004 43.16709561034275">
<g>
<svg width="395.52" height="43.167" data-palette-color="#113f67" viewBox="1.2999999523162842 -35.650001525878906 332.58001708984375 36.30000305175781">
<path class="undefined-text-0" d="m26.5 0h-5.3q-4.7 0-8.4-1.28-3.7-1.27-6.25-3.6-2.55-2.32-3.9-5.52t-1.35-7.1 1.35-7.1 3.93-5.53q2.57-2.32 6.25-3.6 3.67-1.27 8.37-1.27h5.3v8.45h-4.95q-2.3 0-4.05 0.7t-2.9 1.92q-1.15 1.23-1.72 2.88-0.58 1.65-0.58 3.55t0.58 3.55q0.57 1.65 1.72 2.87 1.15 1.23 2.9 1.93t4.05 0.7h4.95v8.45zm29.1 0h-15.7q-3 0-5.48-1.3-2.47-1.3-3.92-3.58-1.45-2.27-1.45-5.27 0-2.35 1.07-4.43 1.08-2.07 2.98-3.47-1.65-1.3-2.65-3.18-1-1.87-1-3.87 0-2.95 1.42-5.18 1.43-2.22 3.85-3.47 2.43-1.25 5.33-1.25h15.55v8.5l-13.15-0.05q-0.8 0-1.45 0.27-0.65 0.28-1.03 0.8-0.37 0.53-0.37 1.33 0 0.75 0.37 1.27 0.38 0.53 1.03 0.8 0.65 0.28 1.45 0.28h11.4v8.4h-11.35q-0.85 0-1.5 0.3t-1.03 0.85q-0.37 0.55-0.37 1.35 0 0.75 0.37 1.3 0.38 0.55 1.03 0.82 0.65 0.28 1.5 0.28h13.1v8.5zm21.24 0h-16.64v-8.45h14.85q0.85 0 1.42-0.35 0.58-0.35 0.9-0.93 0.33-0.57 0.33-1.22 0-0.7-0.33-1.28-0.32-0.57-0.9-0.92-0.57-0.35-1.42-0.35h-4.5q-3.25 0-5.9-1.25t-4.23-3.63q-1.57-2.37-1.57-5.72 0-3.3 1.5-5.75t4.05-3.8 5.65-1.35h15.95v8.45h-14.5q-0.7 0-1.23 0.3-0.52 0.3-0.8 0.8-0.27 0.5-0.27 1.1t0.27 1.1q0.28 0.5 0.8 0.82 0.53 0.33 1.23 0.33h4.84q3.56 0 6.21 1.32 2.65 1.33 4.1 3.68 1.44 2.35 1.44 5.55 0 3.65-1.52 6.25t-4.07 3.95-5.66 1.35zm23.85 0h-11.2l11.2-30.6q0.95-2.5 3.13-3.78 2.17-1.27 4.92-1.27t4.93 1.25q2.17 1.25 3.12 3.75l11.2 30.65h-11.45l-1.9-6.1h-11.95l-2 6.1zm7.7-25.6-3.45 11.25h7.45l-3.25-11.25q-0.05-0.15-0.15-0.23-0.1-0.07-0.25-0.07-0.1 0-0.2 0.07-0.1 0.08-0.15 0.23zm31.85 25.6h-10.8v-35h16.6q3.8 0 6.9 1.6t4.95 4.42q1.85 2.83 1.85 6.53 0 3.05-1.47 5.72-1.48 2.68-3.93 4.43l1.95 3.05q0.35 0.5 0.75 0.75t1.2 0.25h2.5v8.25h-5.6q-2.65 0-4.72-1.15-2.08-1.15-3.18-3l-3.35-5.65q-0.2 0-0.4 0t-0.4 0h-2.85v9.8zm0-26.55v8.5h4.7q1 0 1.9-0.52 0.9-0.53 1.45-1.51 0.55-0.97 0.55-2.27t-0.55-2.23q-0.55-0.92-1.45-1.45-0.9-0.52-1.9-0.52h-4.7zm58.95 26.55h-10.65q-3.55 0-6.2-1.5t-4.1-3.98q-1.45-2.47-1.45-5.47v-24.05h10.8v24.15q0 0.95 0.67 1.67 0.68 0.73 1.68 0.73h9.25v8.45zm21.09 0.65q-4.15 0-7.62-1.35-3.48-1.35-6-3.83-2.53-2.47-3.93-5.77t-1.4-7.2 1.4-7.23q1.4-3.32 3.93-5.77 2.52-2.45 6-3.8 3.47-1.35 7.62-1.35t7.63 1.35q3.47 1.35 6 3.8 2.52 2.45 3.92 5.77 1.4 3.33 1.4 7.23t-1.4 7.2-3.92 5.77q-2.53 2.48-6 3.83-3.48 1.35-7.63 1.35zm0-8.7q1.85 0 3.35-0.73 1.5-0.72 2.55-2.02t1.6-3.03q0.55-1.72 0.55-3.67t-0.55-3.68q-0.55-1.72-1.6-3.02t-2.55-2.03q-1.5-0.72-3.35-0.72t-3.35 0.72q-1.5 0.73-2.55 2.03t-1.6 3.02q-0.55 1.73-0.55 3.68t0.55 3.67q0.55 1.73 1.6 3.03t2.55 2.02q1.5 0.73 3.35 0.73zm33.25 8.05h-10.8v-35h15.75q3.75 0 6.85 1.62 3.1 1.63 4.95 4.5 1.85 2.88 1.85 6.68t-1.85 6.72q-1.85 2.93-4.95 4.58t-6.85 1.65h-4.95v9.25zm0-26.55v8.85h3.8q1.05 0 1.93-0.53 0.87-0.52 1.42-1.5 0.55-0.97 0.55-2.37t-0.55-2.4-1.42-1.53q-0.88-0.52-1.93-0.52h-3.8zm47.85 26.55h-15.7q-3 0-5.48-1.3-2.47-1.3-3.92-3.58-1.45-2.27-1.45-5.27 0-2.35 1.07-4.43 1.08-2.07 2.98-3.47-1.65-1.3-2.65-3.18-1-1.87-1-3.87 0-2.95 1.42-5.18 1.43-2.22 3.85-3.47 2.43-1.25 5.33-1.25h15.55v8.5l-13.15-0.05q-0.8 0-1.45 0.27-0.65 0.28-1.03 0.8-0.37 0.53-0.37 1.33 0 0.75 0.37 1.27 0.38 0.53 1.03 0.8 0.65 0.28 1.45 0.28h11.4v8.4h-11.35q-0.85 0-1.5 0.3t-1.03 0.85q-0.37 0.55-0.37 1.35 0 0.75 0.37 1.3 0.38 0.55 1.03 0.82 0.65 0.28 1.5 0.28h13.1v8.5zm21.25 0h-16.65v-8.45h14.85q0.85 0 1.42-0.35 0.58-0.35 0.9-0.93 0.33-0.57 0.33-1.22 0-0.7-0.33-1.28-0.32-0.57-0.9-0.92-0.57-0.35-1.42-0.35h-4.5q-3.25 0-5.9-1.25t-4.23-3.63q-1.57-2.37-1.57-5.72 0-3.3 1.5-5.75t4.05-3.8 5.65-1.35h15.95v8.45h-14.5q-0.7 0-1.23 0.3-0.52 0.3-0.8 0.8-0.27 0.5-0.27 1.1t0.27 1.1q0.28 0.5 0.8 0.82 0.53 0.33 1.23 0.33h4.85q3.55 0 6.2 1.32 2.65 1.33 4.1 3.68t1.45 5.55q0 3.65-1.53 6.25-1.52 2.6-4.07 3.95t-5.65 1.35z" fill="#113f67" data-fill-palette-color="primary"/>
</svg>
</g>
</svg>
<g transform="translate(163.31 53.358)">
<svg width="232.21" height="24.702" viewBox="0 0 232.20979200000002 24.70162509189415">
<g>
<svg width="232.21" height="24.702" data-palette-color="#87c0cd" viewBox="4.199999809265137 -38.349998474121094 479.8499755859375 51.04999923706055">
<path class="undefined-text-1" d="m8.35-36.15h16.25q5.5 0 5.5 2.8 0 1.7-1.5 2.45-1.6-1.15-4.8-1.15h-12.95v11.3h9.5q3.1 0 4.4 0.52 1.3 0.53 1.3 1.88t-1.35 2.2q-1.4-0.65-4.8-0.65h-9.05v13.1q0 1.85 1.35 2.4-1.3 1.75-3.2 1.75-3.4 0-3.4-4.2v-28.05q0-1.8-1.4-2.4 1.4-1.95 4.15-1.95zm49.1 14.3v18.15q0 1.8 1.4 2.4-1.3 1.75-3.2 1.75-3.4 0-3.4-4.2v-0.35q-2.7 4.55-7.85 4.55-4.15 0-6.43-2.18-2.27-2.17-2.27-6.52v-13.65q0-1.75-1.4-2.45 1.3-1.75 3.2-1.75 3.4 0 3.4 4.25v13.2q0 4.85 4.85 4.85 2.2 0 3.9-1.28 1.7-1.27 2.6-3.67v-13.15q0-1.75-1.4-2.45 1.4-1.75 3.2-1.75 3.4 0 3.4 4.25zm13.74-12.3v30.45q0 1.8 1.4 2.4-1.29 1.75-3.2 1.75-3.39 0-3.39-4.2v-30.45q0-1.75-1.41-2.45 1.21-1.7 3.21-1.7 3.39 0 3.39 4.2zm14 0v30.45q0 1.8 1.4 2.4-1.3 1.75-3.2 1.75-3.4 0-3.4-4.2v-30.45q0-1.75-1.4-2.45 1.2-1.7 3.2-1.7 3.4 0 3.4 4.2zm47.2 4.6q0 1.55-0.88 2.45-0.87 0.9-2.17 0.9t-2.7-0.7q0.3-0.9 0.3-1.65 0-1.7-1.8-3.13-1.8-1.42-5.03-1.42-3.22 0-5.17 1.32-1.95 1.33-1.95 3.38t1.52 3.55q1.53 1.5 3.8 2.5 2.28 1 4.93 2.27 2.65 1.28 4.92 2.51 2.28 1.22 3.8 3.17 1.53 1.95 1.53 4.3 0 4.55-3.98 7.55-3.97 3-9.6 3-5.62 0-9.35-2.38-3.72-2.37-3.72-6.02 0-1.75 1.07-2.83 1.08-1.07 2.75-1.07 1.68 0 2.83 1.3-1.15 1-1.15 2.82 0 1.83 2.02 3.18 2.03 1.35 5.53 1.35t5.92-1.7q2.43-1.7 2.43-3.98 0-2.27-2.13-3.92-2.12-1.65-5.12-2.88-3-1.22-6.03-2.62-3.02-1.4-5.15-3.65-2.12-2.25-2.12-5.15 0-4.25 3.75-6.92 3.75-2.68 8.97-2.68 5.23 0 8.6 2.07 3.38 2.08 3.38 5.08zm14.3 7.6h-0.6v15.15q0 1.8 0.67 2.57 0.68 0.78 2.23 0.78 3.04 0 5.6-2.55 1.1 0.2 1.1 1.8t-2.28 3.13q-2.27 1.52-5.6 1.52-3.32 0-5.15-1.73-1.82-1.72-1.82-5.12v-15.55q-2.06-0.05-3-0.68-0.95-0.62-0.95-1.62t0.75-1.55q1.39 0.2 2.64 0.2h0.56v-3.3q0-1.8-1.4-2.4 1.2-1.75 3.15-1.75 3.5 0 3.5 4.2v3.25h8.1q0.3 0.45 0.3 0.9 0 2.75-7.8 2.75zm18.19 15.45q0 3.2 3.5 3.2t5.75-2.95v-5.65q-4.75 0.25-7 1.72-2.25 1.48-2.25 3.68zm14.5-11.25v12.7q0 2.8 2.5 3.3-1.25 2.2-3.85 2.2-3.35 0-3.85-3.75-2.9 3.75-7.75 3.75-3.2 0-5.2-1.7t-2-4.7q0-3.7 3.8-5.98 3.8-2.27 11.1-2.47v-3.5q0-2.7-0.97-3.98-0.98-1.27-3-1.27-2.03 0-3.08 0.87-1.05 0.88-1.05 2.1 0 1.23 0.7 1.98-1.25 1.1-2.9 1.1t-2.57-0.83q-0.93-0.82-0.93-2.27 0-2.5 2.9-4.2t7.03-1.7q4.12 0 6.62 2.15t2.5 6.2zm27.15-3.2q0 1.4-0.85 2.17-0.85 0.78-2.12 0.78-1.28 0-2.13-0.6 0.15-0.5 0.15-1.53 0-1.02-0.83-1.82-0.82-0.8-2.47-0.8-2.7 0-4.82 2.75-2.13 2.75-2.13 7.27 0 4.53 2.08 6.83 2.07 2.3 5.17 2.3 4.2 0 6.95-2.75 0.75 0.4 0.75 1.6 0 1.9-2.57 3.55-2.58 1.65-5.98 1.65-5 0-8.3-3.25t-3.3-9.15 3.75-10.03q3.75-4.12 9.3-4.12 3.2 0 5.28 1.47 2.07 1.48 2.07 3.68zm11.75-13.2v18.9q10.45-4.65 10.45-10.85 2.15 0 3.47 1 1.33 1 1.33 2.65 0 2.6-2.98 4.82-2.97 2.23-8.22 3.88 5.6 6.6 8.15 8.15 1.45 0.95 2.4 1.2t2.3 0.25q0 2.05-1.03 3.32-1.02 1.28-2.82 1.28-2.45 0-4.98-2.58-2.52-2.57-8.07-10.37v8.8q0 1.8 1.4 2.4-1.3 1.75-3.2 1.75-3.4 0-3.4-4.2v-30.45q0-1.75-1.4-2.45 1.2-1.7 3.2-1.7 3.4 0 3.4 4.2zm48.34-2.4q7.7 0 13.2 4.5 2.7 2.2 4.25 5.82 1.55 3.63 1.55 8.23t-1.55 8.2-4.25 5.8q-5.45 4.45-13.2 4.45-6.2 0-8.6-1.7t-2.4-5.3l0.05-24.4q0-2.4-0.95-3.6 5.65-2 11.9-2zm0 33.25q5.8 0 9.63-3.85 3.82-3.85 3.82-10.85t-3.82-10.88q-3.83-3.87-9.63-3.87-2.85 0-5.6 0.85l-0.1 25.5q0 1.7 1.05 2.4t4.65 0.7zm29.25-11.7 8.15-0.75q1.95-0.15 1.95-2.25t-1.12-3.48q-1.13-1.37-3.18-1.37t-3.73 2.05q-1.67 2.05-2.07 5.8zm-0.15 2.65q0.05 4.55 2.08 6.72 2.02 2.18 5.75 2.18 3.72 0 6.52-2.8 0.85 0.45 0.85 1.55 0 1.85-2.55 3.5t-6 1.65q-5.4 0-8.7-3.23-3.3-3.22-3.3-9.17t3.6-10.05 8.55-4.1q3.9 0 6.35 2.62 2.45 2.63 2.45 5.98 0 2.45-1.27 3.6-1.28 1.15-4.23 1.2l-10.1 0.35zm30.8 9.25 6.35-17.6q0.5-1.3 0.5-2.48 0-1.17-0.7-2.02 1.3-0.9 2.7-0.9t2.22 0.8q0.83 0.8 0.83 1.97 0 1.18-0.65 2.93l-6.6 16.55q-0.9 2.35-1.9 3.3t-2.85 0.95-2.9-0.95-1.8-3.3l-5.75-17.4q-0.7-2-2.1-2.35 0.2-1.1 1.17-1.8 0.98-0.7 2.18-0.7 3.05 0 4.05 3.8l5.25 19.2zm21-11.9 8.15-0.75q1.95-0.15 1.95-2.25t-1.13-3.48q-1.12-1.37-3.17-1.37t-3.73 2.05q-1.67 2.05-2.07 5.8zm-0.15 2.65q0.05 4.55 2.07 6.72 2.03 2.18 5.75 2.18 3.73 0 6.53-2.8 0.85 0.45 0.85 1.55 0 1.85-2.55 3.5t-6 1.65q-5.4 0-8.7-3.23-3.3-3.22-3.3-9.17t3.6-10.05 8.55-4.1q3.9 0 6.35 2.62 2.45 2.63 2.45 5.98 0 2.45-1.28 3.6-1.27 1.15-4.22 1.2l-10.1 0.35zm26.89-21.8v30.45q0 1.8 1.4 2.4-1.3 1.75-3.2 1.75-3.4 0-3.4-4.2v-30.45q0-1.75-1.4-2.45 1.2-1.7 3.2-1.7 3.4 0 3.4 4.2zm23.8 13.77q-2.1-2.62-5.22-2.62-3.13 0-4.78 2.3t-1.65 6.6q0 6.15 2.15 8.82 2.15 2.68 5.25 2.68t4.73-2.35q1.62-2.35 1.62-6.6 0-6.2-2.1-8.83zm-16.95 7.55q0-6.32 3.5-9.8 3.5-3.47 8.68-3.47 5.17 0 8.67 3.5t3.5 9.8-3.5 9.77q-3.5 3.48-8.65 3.48t-8.67-3.48q-3.53-3.47-3.53-9.8zm42.35 9.58q2.75 0 4.7-2.6t1.95-6.95-1.93-6.83q-1.92-2.47-4.72-2.47-3.95 0-5.95 3.95v11.7q2.15 3.2 5.95 3.2zm-11.15 11.7v-30.35q0-1.75-1.4-2.45 1.3-1.75 3.2-1.75 3.1 0 3.4 3.6 2.65-3.6 7.15-3.6t7.65 3.47q3.15 3.48 3.15 9.78t-3.45 9.8-8.05 3.5q-3.75 0-6.45-2.6v10.65q0 1.8 1.4 2.4-1.3 1.8-3.2 1.8-3.4 0-3.4-4.25zm33.05-23.45 8.15-0.75q1.95-0.15 1.95-2.25t-1.13-3.48q-1.12-1.37-3.17-1.37t-3.73 2.05q-1.67 2.05-2.07 5.8zm-0.15 2.65q0.05 4.55 2.07 6.72 2.03 2.18 5.75 2.18 3.73 0 6.53-2.8 0.85 0.45 0.85 1.55 0 1.85-2.55 3.5t-6 1.65q-5.4 0-8.7-3.23-3.3-3.22-3.3-9.17t3.6-10.05 8.55-4.1q3.9 0 6.35 2.62 2.45 2.63 2.45 5.98 0 2.45-1.28 3.6-1.27 1.15-4.22 1.2l-10.1 0.35zm26.89-9.5v1q2-5.25 6.85-5.25 2.4 0 3.75 1.25t1.35 3.07q0 1.83-0.92 2.8-0.93 0.98-2.43 0.98-0.05 0-1.25-0.15 0.15-0.75 0.15-1.63 0-0.87-0.67-1.55-0.68-0.67-2.03-0.67t-2.77 1.47q-1.43 1.48-2.03 4.63v12.2q0 1.8 1.4 2.4-1.3 1.75-3.2 1.75-3.4 0-3.4-4.2v-18.15q0-1.75-1.4-2.45 1.3-1.75 3.2-1.75 3.4 0 3.4 4.25z" fill="#87c0cd" data-fill-palette-color="secondary"/>
</svg>
</g>
</svg>
</g>
</svg>
</svg>
</g>
<g transform="translate(405.71)">
<svg width="107.88" height="107.88" viewBox="0 0 107.87814050438205 107.87814050438205">
<g fill="#87c0cd" stroke="transparent" data-palette-color="#87c0cd">
<rect width="29.487" height="107.88" data-fill-palette-color="accent"/>
<rect x="35.959" width="29.487" height="107.88" fill-opacity=".75" data-fill-palette-color="accent"/>
<rect x="71.919" width="29.487" height="107.88" fill-opacity=".5" data-fill-palette-color="accent"/>
</g>
</svg>
</g>
</svg>
</svg>
<rect width="395.52" height="83.078" fill="none" visibility="hidden"/>
</g>
</svg>
</g>
</svg>
